<mxfile host="Electron" agent="Mozilla/5.0 (X11; Linux x86_64) AppleWebKit/537.36 (KHTML, like Gecko) draw.io/24.7.8 Chrome/128.0.6613.36 Electron/32.0.1 Safari/537.36" version="24.7.8">
  <diagram name="Page-1" id="86gcffnsuX3LsFzJbxiK">
    <mxGraphModel dx="477" dy="275" grid="1" gridSize="10" guides="1" tooltips="1" connect="1" arrows="1" fold="1" page="1" pageScale="1" pageWidth="350" pageHeight="350" math="0" shadow="0">
      <root>
        <mxCell id="0" />
        <mxCell id="1" parent="0" />
        <mxCell id="M5RXBwGVGIgWAAM0HeSH-2" value="" style="group" vertex="1" connectable="0" parent="1">
          <mxGeometry x="1" y="25" width="309.09" height="300" as="geometry" />
        </mxCell>
        <mxCell id="7R27D0WVe1T6TBkrIgwF-1" value="" style="rounded=0;whiteSpace=wrap;absoluteArcSize=0;imageAspect=1;fontFamily=Times New Roman;fontSize=12;container=0;" parent="M5RXBwGVGIgWAAM0HeSH-2" vertex="1">
          <mxGeometry x="36.36352941176471" y="27.272727272727273" width="36.36352941176471" height="36.36363636363637" as="geometry" />
        </mxCell>
        <mxCell id="7R27D0WVe1T6TBkrIgwF-2" value="" style="rounded=0;whiteSpace=wrap;fontFamily=Times New Roman;fontSize=12;container=0;" parent="M5RXBwGVGIgWAAM0HeSH-2" vertex="1">
          <mxGeometry x="36.36352941176471" y="81.81818181818183" width="36.36352941176471" height="36.36363636363637" as="geometry" />
        </mxCell>
        <mxCell id="7R27D0WVe1T6TBkrIgwF-3" value="" style="rounded=0;whiteSpace=wrap;fontFamily=Times New Roman;fontSize=12;container=0;" parent="M5RXBwGVGIgWAAM0HeSH-2" vertex="1">
          <mxGeometry x="36.36352941176471" y="136.36363636363637" width="36.36352941176471" height="36.36363636363637" as="geometry" />
        </mxCell>
        <mxCell id="7R27D0WVe1T6TBkrIgwF-4" value="" style="rounded=0;whiteSpace=wrap;fontFamily=Times New Roman;fontSize=12;container=0;" parent="M5RXBwGVGIgWAAM0HeSH-2" vertex="1">
          <mxGeometry x="36.36352941176471" y="245.4545454545455" width="36.36352941176471" height="36.36363636363637" as="geometry" />
        </mxCell>
        <mxCell id="7R27D0WVe1T6TBkrIgwF-17" value="" style="rounded=0;whiteSpace=wrap;fontFamily=Times New Roman;fontSize=12;container=0;" parent="M5RXBwGVGIgWAAM0HeSH-2" vertex="1">
          <mxGeometry x="90.90882352941176" y="27.272727272727273" width="36.36352941176471" height="36.36363636363637" as="geometry" />
        </mxCell>
        <mxCell id="7R27D0WVe1T6TBkrIgwF-18" value="" style="rounded=0;whiteSpace=wrap;fontFamily=Times New Roman;fontSize=12;container=0;" parent="M5RXBwGVGIgWAAM0HeSH-2" vertex="1">
          <mxGeometry x="145.45411764705884" y="27.272727272727273" width="36.36352941176471" height="36.36363636363637" as="geometry" />
        </mxCell>
        <mxCell id="7R27D0WVe1T6TBkrIgwF-19" value="" style="rounded=0;whiteSpace=wrap;fontFamily=Times New Roman;fontSize=12;container=0;" parent="M5RXBwGVGIgWAAM0HeSH-2" vertex="1">
          <mxGeometry x="254.5447058823529" y="27.272727272727273" width="36.36352941176471" height="36.36363636363637" as="geometry" />
        </mxCell>
        <mxCell id="7R27D0WVe1T6TBkrIgwF-30" value="" style="rounded=0;whiteSpace=wrap;fontFamily=Times New Roman;fontSize=12;container=0;" parent="M5RXBwGVGIgWAAM0HeSH-2" vertex="1">
          <mxGeometry x="90.90882352941176" y="81.81818181818183" width="36.36352941176471" height="36.36363636363637" as="geometry" />
        </mxCell>
        <mxCell id="7R27D0WVe1T6TBkrIgwF-31" value="" style="rounded=0;whiteSpace=wrap;fontFamily=Times New Roman;fontSize=12;container=0;" parent="M5RXBwGVGIgWAAM0HeSH-2" vertex="1">
          <mxGeometry x="145.45411764705884" y="81.81818181818183" width="36.36352941176471" height="36.36363636363637" as="geometry" />
        </mxCell>
        <mxCell id="7R27D0WVe1T6TBkrIgwF-32" value="" style="rounded=0;whiteSpace=wrap;fontFamily=Times New Roman;fontSize=12;container=0;" parent="M5RXBwGVGIgWAAM0HeSH-2" vertex="1">
          <mxGeometry x="254.5447058823529" y="81.81818181818183" width="36.36352941176471" height="36.36363636363637" as="geometry" />
        </mxCell>
        <mxCell id="7R27D0WVe1T6TBkrIgwF-37" value="" style="rounded=0;whiteSpace=wrap;fontFamily=Times New Roman;fontSize=12;container=0;" parent="M5RXBwGVGIgWAAM0HeSH-2" vertex="1">
          <mxGeometry x="90.90882352941176" y="136.36363636363637" width="36.36352941176471" height="36.36363636363637" as="geometry" />
        </mxCell>
        <mxCell id="7R27D0WVe1T6TBkrIgwF-38" value="" style="rounded=0;whiteSpace=wrap;fontFamily=Times New Roman;fontSize=12;container=0;" parent="M5RXBwGVGIgWAAM0HeSH-2" vertex="1">
          <mxGeometry x="145.45411764705884" y="136.36363636363637" width="36.36352941176471" height="36.36363636363637" as="geometry" />
        </mxCell>
        <mxCell id="7R27D0WVe1T6TBkrIgwF-39" value="" style="rounded=0;whiteSpace=wrap;fontFamily=Times New Roman;fontSize=12;container=0;" parent="M5RXBwGVGIgWAAM0HeSH-2" vertex="1">
          <mxGeometry x="254.5447058823529" y="136.36363636363637" width="36.36352941176471" height="36.36363636363637" as="geometry" />
        </mxCell>
        <mxCell id="7R27D0WVe1T6TBkrIgwF-44" value="" style="rounded=0;whiteSpace=wrap;fontFamily=Times New Roman;fontSize=12;container=0;" parent="M5RXBwGVGIgWAAM0HeSH-2" vertex="1">
          <mxGeometry x="90.90882352941176" y="245.4545454545455" width="36.36352941176471" height="36.36363636363637" as="geometry" />
        </mxCell>
        <mxCell id="7R27D0WVe1T6TBkrIgwF-49" value="" style="rounded=0;whiteSpace=wrap;fontFamily=Times New Roman;fontSize=12;container=0;" parent="M5RXBwGVGIgWAAM0HeSH-2" vertex="1">
          <mxGeometry x="145.45411764705884" y="245.4545454545455" width="36.36352941176471" height="36.36363636363637" as="geometry" />
        </mxCell>
        <mxCell id="7R27D0WVe1T6TBkrIgwF-54" value="" style="rounded=0;whiteSpace=wrap;fontFamily=Times New Roman;fontSize=12;container=0;" parent="M5RXBwGVGIgWAAM0HeSH-2" vertex="1">
          <mxGeometry x="254.5447058823529" y="245.4545454545455" width="36.36352941176471" height="36.36363636363637" as="geometry" />
        </mxCell>
        <mxCell id="7R27D0WVe1T6TBkrIgwF-59" value="pulse 1" style="text;strokeColor=none;fillColor=none;align=center;verticalAlign=middle;whiteSpace=wrap;rounded=0;fontFamily=Times New Roman;fontSize=12;container=0;" parent="M5RXBwGVGIgWAAM0HeSH-2" vertex="1">
          <mxGeometry x="32.73" width="43.64" height="27.27" as="geometry" />
        </mxCell>
        <mxCell id="7R27D0WVe1T6TBkrIgwF-60" value="pulse 2" style="text;strokeColor=none;fillColor=none;align=center;verticalAlign=middle;whiteSpace=wrap;rounded=0;fontFamily=Times New Roman;fontSize=12;container=0;" parent="M5RXBwGVGIgWAAM0HeSH-2" vertex="1">
          <mxGeometry x="89.55" width="39.09" height="27.27" as="geometry" />
        </mxCell>
        <mxCell id="7R27D0WVe1T6TBkrIgwF-61" value="pulse 3" style="text;strokeColor=none;fillColor=none;align=center;verticalAlign=middle;whiteSpace=wrap;rounded=0;fontFamily=Times New Roman;fontSize=12;container=0;" parent="M5RXBwGVGIgWAAM0HeSH-2" vertex="1">
          <mxGeometry x="141.35999999999999" width="44.55" height="27.27" as="geometry" />
        </mxCell>
        <mxCell id="7R27D0WVe1T6TBkrIgwF-62" value="pulse M" style="text;strokeColor=none;fillColor=none;align=center;verticalAlign=middle;whiteSpace=wrap;rounded=0;fontFamily=Times New Roman;fontSize=12;container=0;" parent="M5RXBwGVGIgWAAM0HeSH-2" vertex="1">
          <mxGeometry x="245.45382352941175" width="54.54529411764705" height="27.272727272727273" as="geometry" />
        </mxCell>
        <mxCell id="7R27D0WVe1T6TBkrIgwF-63" value="range&#xa;bin 1" style="text;strokeColor=none;fillColor=none;align=center;verticalAlign=middle;rounded=0;fontFamily=Times New Roman;fontSize=12;container=0;" parent="M5RXBwGVGIgWAAM0HeSH-2" vertex="1">
          <mxGeometry y="31.818181818181827" width="36.36352941176471" height="27.272727272727273" as="geometry" />
        </mxCell>
        <mxCell id="7R27D0WVe1T6TBkrIgwF-64" value="range&#xa;bin 2" style="text;strokeColor=none;fillColor=none;align=center;verticalAlign=middle;rounded=0;fontFamily=Times New Roman;fontSize=12;container=0;" parent="M5RXBwGVGIgWAAM0HeSH-2" vertex="1">
          <mxGeometry y="86.36363636363637" width="36.36352941176471" height="27.272727272727273" as="geometry" />
        </mxCell>
        <mxCell id="7R27D0WVe1T6TBkrIgwF-65" value="range&#xa;bin 3" style="text;strokeColor=none;fillColor=none;align=center;verticalAlign=middle;rounded=0;fontFamily=Times New Roman;fontSize=12;container=0;" parent="M5RXBwGVGIgWAAM0HeSH-2" vertex="1">
          <mxGeometry y="140.90909090909093" width="36.36352941176471" height="27.272727272727273" as="geometry" />
        </mxCell>
        <mxCell id="7R27D0WVe1T6TBkrIgwF-66" value="range&#xa;bin N" style="text;strokeColor=none;fillColor=none;align=center;verticalAlign=middle;rounded=0;fontFamily=Times New Roman;fontSize=12;container=0;" parent="M5RXBwGVGIgWAAM0HeSH-2" vertex="1">
          <mxGeometry y="250.00000000000006" width="36.36352941176471" height="27.272727272727273" as="geometry" />
        </mxCell>
        <mxCell id="7R27D0WVe1T6TBkrIgwF-77" value="Time" style="endArrow=classic;rounded=0;strokeWidth=2;fontFamily=Times New Roman;fontSize=12;labelPosition=center;verticalLabelPosition=bottom;align=center;verticalAlign=top;labelBackgroundColor=none;" parent="M5RXBwGVGIgWAAM0HeSH-2" edge="1">
          <mxGeometry width="50" height="50" relative="1" as="geometry">
            <mxPoint x="36.36352941176471" y="300" as="sourcePoint" />
            <mxPoint x="272.72647058823526" y="300" as="targetPoint" />
          </mxGeometry>
        </mxCell>
        <mxCell id="7R27D0WVe1T6TBkrIgwF-78" value="Range" style="endArrow=classic;rounded=0;strokeWidth=2;fontFamily=Times New Roman;fontSize=12;labelPosition=right;verticalLabelPosition=middle;align=left;verticalAlign=middle;labelBackgroundColor=none;spacingRight=0;spacingLeft=7;" parent="M5RXBwGVGIgWAAM0HeSH-2" edge="1">
          <mxGeometry width="50" height="50" relative="1" as="geometry">
            <mxPoint x="309.09" y="27.272727272727273" as="sourcePoint" />
            <mxPoint x="309.09" y="263.6363636363637" as="targetPoint" />
            <mxPoint as="offset" />
          </mxGeometry>
        </mxCell>
        <mxCell id="7R27D0WVe1T6TBkrIgwF-6" value="" style="ellipse;whiteSpace=wrap;aspect=fixed;fillColor=#000000;connectable=0;allowArrows=0;fontFamily=Times New Roman;fontSize=12;container=0;" parent="M5RXBwGVGIgWAAM0HeSH-2" vertex="1">
          <mxGeometry x="49.999852941176464" y="190.90909090909093" width="9.09079696394687" height="9.09079696394687" as="geometry" />
        </mxCell>
        <mxCell id="7R27D0WVe1T6TBkrIgwF-7" value="" style="ellipse;whiteSpace=wrap;aspect=fixed;fillColor=#000000;connectable=0;allowArrows=0;fontFamily=Times New Roman;fontSize=12;container=0;" parent="M5RXBwGVGIgWAAM0HeSH-2" vertex="1">
          <mxGeometry x="49.999852941176464" y="218.18181818181822" width="9.09079696394687" height="9.09079696394687" as="geometry" />
        </mxCell>
        <mxCell id="7R27D0WVe1T6TBkrIgwF-8" value="" style="ellipse;whiteSpace=wrap;aspect=fixed;fillColor=#000000;connectable=0;allowArrows=0;fontFamily=Times New Roman;fontSize=12;container=0;" parent="M5RXBwGVGIgWAAM0HeSH-2" vertex="1">
          <mxGeometry x="49.999852941176464" y="204.54545454545456" width="9.09079696394687" height="9.09079696394687" as="geometry" />
        </mxCell>
        <mxCell id="7R27D0WVe1T6TBkrIgwF-27" value="" style="ellipse;whiteSpace=wrap;aspect=fixed;fillColor=#000000;connectable=0;allowArrows=0;rotation=90;fontFamily=Times New Roman;fontSize=12;container=0;" parent="M5RXBwGVGIgWAAM0HeSH-2" vertex="1">
          <mxGeometry x="227.2720588235294" y="40.90909090909091" width="9.09079696394687" height="9.09079696394687" as="geometry" />
        </mxCell>
        <mxCell id="7R27D0WVe1T6TBkrIgwF-28" value="" style="ellipse;whiteSpace=wrap;aspect=fixed;fillColor=#000000;connectable=0;allowArrows=0;rotation=90;fontFamily=Times New Roman;fontSize=12;container=0;" parent="M5RXBwGVGIgWAAM0HeSH-2" vertex="1">
          <mxGeometry x="199.99941176470588" y="40.90909090909091" width="9.09079696394687" height="9.09079696394687" as="geometry" />
        </mxCell>
        <mxCell id="7R27D0WVe1T6TBkrIgwF-29" value="" style="ellipse;whiteSpace=wrap;aspect=fixed;fillColor=#000000;connectable=0;allowArrows=0;rotation=90;fontFamily=Times New Roman;fontSize=12;container=0;" parent="M5RXBwGVGIgWAAM0HeSH-2" vertex="1">
          <mxGeometry x="213.63573529411764" y="40.90909090909091" width="9.09079696394687" height="9.09079696394687" as="geometry" />
        </mxCell>
        <mxCell id="7R27D0WVe1T6TBkrIgwF-34" value="" style="ellipse;whiteSpace=wrap;aspect=fixed;fillColor=#000000;connectable=0;allowArrows=0;rotation=90;fontFamily=Times New Roman;fontSize=12;container=0;" parent="M5RXBwGVGIgWAAM0HeSH-2" vertex="1">
          <mxGeometry x="227.2720588235294" y="95.45454545454547" width="9.09079696394687" height="9.09079696394687" as="geometry" />
        </mxCell>
        <mxCell id="7R27D0WVe1T6TBkrIgwF-35" value="" style="ellipse;whiteSpace=wrap;aspect=fixed;fillColor=#000000;connectable=0;allowArrows=0;rotation=90;fontFamily=Times New Roman;fontSize=12;container=0;" parent="M5RXBwGVGIgWAAM0HeSH-2" vertex="1">
          <mxGeometry x="199.99941176470588" y="95.45454545454547" width="9.09079696394687" height="9.09079696394687" as="geometry" />
        </mxCell>
        <mxCell id="7R27D0WVe1T6TBkrIgwF-36" value="" style="ellipse;whiteSpace=wrap;aspect=fixed;fillColor=#000000;connectable=0;allowArrows=0;rotation=90;fontFamily=Times New Roman;fontSize=12;container=0;" parent="M5RXBwGVGIgWAAM0HeSH-2" vertex="1">
          <mxGeometry x="213.63573529411764" y="95.45454545454547" width="9.09079696394687" height="9.09079696394687" as="geometry" />
        </mxCell>
        <mxCell id="7R27D0WVe1T6TBkrIgwF-41" value="" style="ellipse;whiteSpace=wrap;aspect=fixed;fillColor=#000000;connectable=0;allowArrows=0;rotation=90;fontFamily=Times New Roman;fontSize=12;container=0;" parent="M5RXBwGVGIgWAAM0HeSH-2" vertex="1">
          <mxGeometry x="227.2720588235294" y="150" width="9.09079696394687" height="9.09079696394687" as="geometry" />
        </mxCell>
        <mxCell id="7R27D0WVe1T6TBkrIgwF-42" value="" style="ellipse;whiteSpace=wrap;aspect=fixed;fillColor=#000000;connectable=0;allowArrows=0;rotation=90;fontFamily=Times New Roman;fontSize=12;container=0;" parent="M5RXBwGVGIgWAAM0HeSH-2" vertex="1">
          <mxGeometry x="199.99941176470588" y="150" width="9.09079696394687" height="9.09079696394687" as="geometry" />
        </mxCell>
        <mxCell id="7R27D0WVe1T6TBkrIgwF-43" value="" style="ellipse;whiteSpace=wrap;aspect=fixed;fillColor=#000000;connectable=0;allowArrows=0;rotation=90;fontFamily=Times New Roman;fontSize=12;container=0;" parent="M5RXBwGVGIgWAAM0HeSH-2" vertex="1">
          <mxGeometry x="213.63573529411764" y="150" width="9.09079696394687" height="9.09079696394687" as="geometry" />
        </mxCell>
        <mxCell id="7R27D0WVe1T6TBkrIgwF-46" value="" style="ellipse;whiteSpace=wrap;aspect=fixed;fillColor=#000000;connectable=0;allowArrows=0;fontFamily=Times New Roman;fontSize=12;container=0;" parent="M5RXBwGVGIgWAAM0HeSH-2" vertex="1">
          <mxGeometry x="104.54514705882353" y="190.90909090909093" width="9.09079696394687" height="9.09079696394687" as="geometry" />
        </mxCell>
        <mxCell id="7R27D0WVe1T6TBkrIgwF-47" value="" style="ellipse;whiteSpace=wrap;aspect=fixed;fillColor=#000000;connectable=0;allowArrows=0;fontFamily=Times New Roman;fontSize=12;container=0;" parent="M5RXBwGVGIgWAAM0HeSH-2" vertex="1">
          <mxGeometry x="104.54514705882353" y="218.18181818181822" width="9.09079696394687" height="9.09079696394687" as="geometry" />
        </mxCell>
        <mxCell id="7R27D0WVe1T6TBkrIgwF-48" value="" style="ellipse;whiteSpace=wrap;aspect=fixed;fillColor=#000000;connectable=0;allowArrows=0;fontFamily=Times New Roman;fontSize=12;container=0;" parent="M5RXBwGVGIgWAAM0HeSH-2" vertex="1">
          <mxGeometry x="104.54514705882353" y="204.54545454545456" width="9.09079696394687" height="9.09079696394687" as="geometry" />
        </mxCell>
        <mxCell id="7R27D0WVe1T6TBkrIgwF-51" value="" style="ellipse;whiteSpace=wrap;aspect=fixed;fillColor=#000000;connectable=0;allowArrows=0;fontFamily=Times New Roman;fontSize=12;container=0;" parent="M5RXBwGVGIgWAAM0HeSH-2" vertex="1">
          <mxGeometry x="159.09044117647056" y="190.90909090909093" width="9.09079696394687" height="9.09079696394687" as="geometry" />
        </mxCell>
        <mxCell id="7R27D0WVe1T6TBkrIgwF-52" value="" style="ellipse;whiteSpace=wrap;aspect=fixed;fillColor=#000000;connectable=0;allowArrows=0;fontFamily=Times New Roman;fontSize=12;container=0;" parent="M5RXBwGVGIgWAAM0HeSH-2" vertex="1">
          <mxGeometry x="159.09044117647056" y="218.18181818181822" width="9.09079696394687" height="9.09079696394687" as="geometry" />
        </mxCell>
        <mxCell id="7R27D0WVe1T6TBkrIgwF-53" value="" style="ellipse;whiteSpace=wrap;aspect=fixed;fillColor=#000000;connectable=0;allowArrows=0;fontFamily=Times New Roman;fontSize=12;container=0;" parent="M5RXBwGVGIgWAAM0HeSH-2" vertex="1">
          <mxGeometry x="159.09044117647056" y="204.54545454545456" width="9.09079696394687" height="9.09079696394687" as="geometry" />
        </mxCell>
        <mxCell id="7R27D0WVe1T6TBkrIgwF-56" value="" style="ellipse;whiteSpace=wrap;aspect=fixed;fillColor=#000000;connectable=0;allowArrows=0;rotation=-45;fontFamily=Times New Roman;fontSize=12;container=0;" parent="M5RXBwGVGIgWAAM0HeSH-2" vertex="1">
          <mxGeometry x="203.63576470588234" y="194.54545454545456" width="9.09079696394687" height="9.09079696394687" as="geometry" />
        </mxCell>
        <mxCell id="7R27D0WVe1T6TBkrIgwF-57" value="" style="ellipse;whiteSpace=wrap;aspect=fixed;fillColor=#000000;connectable=0;allowArrows=0;rotation=-45;fontFamily=Times New Roman;fontSize=12;container=0;" parent="M5RXBwGVGIgWAAM0HeSH-2" vertex="1">
          <mxGeometry x="223.63570588235294" y="214.54545454545456" width="9.09079696394687" height="9.09079696394687" as="geometry" />
        </mxCell>
        <mxCell id="7R27D0WVe1T6TBkrIgwF-58" value="" style="ellipse;whiteSpace=wrap;aspect=fixed;fillColor=#000000;connectable=0;allowArrows=0;rotation=-45;fontFamily=Times New Roman;fontSize=12;container=0;" parent="M5RXBwGVGIgWAAM0HeSH-2" vertex="1">
          <mxGeometry x="213.63573529411764" y="204.54545454545456" width="9.09079696394687" height="9.09079696394687" as="geometry" />
        </mxCell>
        <mxCell id="7R27D0WVe1T6TBkrIgwF-69" value="" style="ellipse;whiteSpace=wrap;aspect=fixed;fillColor=#000000;connectable=0;allowArrows=0;rotation=90;fontFamily=Times New Roman;fontSize=12;container=0;" parent="M5RXBwGVGIgWAAM0HeSH-2" vertex="1">
          <mxGeometry x="227.2720588235294" y="259.0909090909091" width="9.09079696394687" height="9.09079696394687" as="geometry" />
        </mxCell>
        <mxCell id="7R27D0WVe1T6TBkrIgwF-70" value="" style="ellipse;whiteSpace=wrap;aspect=fixed;fillColor=#000000;connectable=0;allowArrows=0;rotation=90;fontFamily=Times New Roman;fontSize=12;container=0;" parent="M5RXBwGVGIgWAAM0HeSH-2" vertex="1">
          <mxGeometry x="199.99941176470588" y="259.0909090909091" width="9.09079696394687" height="9.09079696394687" as="geometry" />
        </mxCell>
        <mxCell id="7R27D0WVe1T6TBkrIgwF-71" value="" style="ellipse;whiteSpace=wrap;aspect=fixed;fillColor=#000000;connectable=0;allowArrows=0;rotation=90;fontFamily=Times New Roman;fontSize=12;container=0;" parent="M5RXBwGVGIgWAAM0HeSH-2" vertex="1">
          <mxGeometry x="213.63573529411764" y="259.0909090909091" width="9.09079696394687" height="9.09079696394687" as="geometry" />
        </mxCell>
        <mxCell id="7R27D0WVe1T6TBkrIgwF-73" value="" style="ellipse;whiteSpace=wrap;aspect=fixed;fillColor=#000000;connectable=0;allowArrows=0;fontFamily=Times New Roman;fontSize=12;container=0;" parent="M5RXBwGVGIgWAAM0HeSH-2" vertex="1">
          <mxGeometry x="268.1810294117647" y="190.90909090909093" width="9.09079696394687" height="9.09079696394687" as="geometry" />
        </mxCell>
        <mxCell id="7R27D0WVe1T6TBkrIgwF-74" value="" style="ellipse;whiteSpace=wrap;aspect=fixed;fillColor=#000000;connectable=0;allowArrows=0;fontFamily=Times New Roman;fontSize=12;container=0;" parent="M5RXBwGVGIgWAAM0HeSH-2" vertex="1">
          <mxGeometry x="268.1810294117647" y="218.18181818181822" width="9.09079696394687" height="9.09079696394687" as="geometry" />
        </mxCell>
        <mxCell id="7R27D0WVe1T6TBkrIgwF-75" value="" style="ellipse;whiteSpace=wrap;aspect=fixed;fillColor=#000000;connectable=0;allowArrows=0;fontFamily=Times New Roman;fontSize=12;container=0;" parent="M5RXBwGVGIgWAAM0HeSH-2" vertex="1">
          <mxGeometry x="268.1810294117647" y="204.54545454545456" width="9.09079696394687" height="9.09079696394687" as="geometry" />
        </mxCell>
      </root>
    </mxGraphModel>
  </diagram>
</mxfile>
